<svg width="160" height="24" viewBox="0 0 160 24" fill="none" xmlns="http://www.w3.org/2000/svg">
<path opacity="0.3" d="M39.6767 1L33.873 22.6601" stroke="black"/>
<path fill-rule="evenodd" clip-rule="evenodd" d="M8.6628 2.34574C8.6628 2.05843 8.42954 1.82534 8.1424 1.82534H4.24171C2.93834 1.82534 1.88027 2.8834 1.88027 4.18661V19.8113C1.88027 21.1145 2.93834 22.1728 4.24171 22.1728H8.1424C8.42954 22.1728 8.6628 21.9395 8.6628 21.6523V2.34574ZM19.9455 15.2195C19.3734 14.1932 18.0757 13.36 17.0495 13.36H11.0778C10.762 13.36 10.6485 13.6163 10.8244 13.9321L14.383 20.3174C14.955 21.3439 16.2526 22.1772 17.279 22.1772H23.2505C23.5663 22.1772 23.68 21.9208 23.5038 21.6048L19.9455 15.2195ZM20.1944 6.57296C20.1944 3.9527 18.0671 1.82534 15.4466 1.82534H11.2575C10.9492 1.82534 10.699 2.07553 10.699 2.38383V10.7621C10.699 11.0704 10.9492 11.3208 11.2575 11.3208H15.4466C18.0671 11.3208 20.1944 9.19339 20.1944 6.57296Z" fill="black"/>
<mask id="mask0_1_89" style="mask-type:luminance" maskUnits="userSpaceOnUse" x="46" y="-3" width="68" height="30">
<path d="M113.275 -2.5H46.2749V26.5H113.275V-2.5Z" fill="white"/>
</mask>
<g mask="url(#mask0_1_89)">
<path fill-rule="evenodd" clip-rule="evenodd" d="M111.242 7.34952V16.6505C111.242 19.9995 108.523 22.7186 105.174 22.7186H95.8726C92.5235 22.7186 89.8044 19.9995 89.8044 16.6505V7.34952C89.8044 4.00047 92.5235 1.28141 95.8726 1.28141H105.174C108.523 1.28141 111.242 4.00047 111.242 7.34952Z" stroke="black" stroke-width="2.07457"/>
<path d="M96.8149 17.1501C94.2876 17.1501 92.3984 15.1233 92.3984 12.621C92.3984 10.1313 94.2876 8.1044 96.6272 8.1044C98.1411 8.1044 99.4673 8.9677 100.206 10.2314C100.256 10.3064 100.218 10.369 100.143 10.394L98.8292 10.7944C98.7667 10.8194 98.7166 10.7944 98.6666 10.7318C98.2036 10.0937 97.453 9.6558 96.6522 9.6558C95.2259 9.6558 94.0374 11.0571 94.0374 12.6335C94.0374 14.2225 95.2259 15.6112 96.8649 15.6112C98.3162 15.6112 99.0294 14.7855 99.2921 13.9973C99.3172 13.9222 99.2671 13.8847 99.2045 13.8847H96.8399C96.7648 13.8847 96.7148 13.8346 96.7148 13.7596V12.4959C96.7148 12.4208 96.7648 12.3708 96.8399 12.3708H100.231C100.969 12.3708 100.819 12.3958 100.819 14.0974C100.819 15.4111 99.0919 17.1501 96.8149 17.1501ZM101.965 17C101.89 17 101.84 16.95 101.84 16.8749V8.3672C101.84 8.2921 101.89 8.2421 101.965 8.2421H104.567C106.656 8.2421 107.282 9.5683 107.282 10.7193C107.282 11.1947 107.119 11.6952 106.857 12.1081C106.819 12.1706 106.832 12.2082 106.894 12.2457C107.795 12.7461 108.07 13.672 108.07 14.4227C108.07 17 105.818 17 103.491 17H101.965ZM103.491 15.4111C103.491 15.4736 103.529 15.5111 103.591 15.5111C104.129 15.5111 104.78 15.5487 105.143 15.5237C106.056 15.4611 106.419 14.9481 106.419 14.2975C106.419 13.6094 105.906 13.184 105.268 13.1715H105.23H103.591C103.529 13.1715 103.491 13.2091 103.491 13.2716V15.4111ZM103.491 11.7577C103.491 11.8203 103.529 11.8578 103.591 11.8578H104.667C106.144 11.8578 106.006 9.7559 104.667 9.7559H103.591C103.529 9.7559 103.491 9.7935 103.491 9.856V11.7577Z" fill="black"/>
<path d="M53.2958 17.204C50.1168 17.204 47.5498 14.62 47.5498 11.05C47.5498 7.497 50.1168 4.913 53.2958 4.913C56.4578 4.913 59.0248 7.497 59.0248 11.05C59.0248 14.62 56.4578 17.204 53.2958 17.204ZM49.7258 11.067C49.7258 13.141 51.2898 14.943 53.2618 14.943C55.2508 14.943 56.8148 13.141 56.8148 11.067C56.8148 8.993 55.2508 7.191 53.2618 7.191C51.2728 7.191 49.7258 9.01 49.7258 11.067ZM65.0618 8.381C67.3058 8.381 69.1248 10.472 69.1248 12.869C69.1248 15.266 67.3058 17.221 65.0618 17.221C64.1268 17.221 63.2768 16.915 62.6308 16.405C62.5288 16.337 62.4608 16.388 62.4608 16.49V20.23C62.4608 20.332 62.3928 20.4 62.2908 20.4H60.3868C60.2848 20.4 60.2168 20.332 60.2168 20.23V8.687C60.2168 8.585 60.2848 8.517 60.3868 8.517H62.2908C62.3928 8.517 62.4608 8.585 62.4608 8.687V9.18C62.4608 9.299 62.5288 9.333 62.6138 9.265C63.2768 8.721 64.1098 8.381 65.0618 8.381ZM62.4608 12.835C62.4608 14.127 63.5148 15.232 64.8408 15.232C66.1498 15.232 67.1528 14.127 67.1528 12.835C67.1528 11.56 66.1328 10.421 64.8408 10.421C63.5148 10.421 62.4608 11.56 62.4608 12.835ZM74.4585 17.204C71.9935 17.204 69.9705 15.181 69.9705 12.665C69.9705 10.166 71.8235 8.228 74.2715 8.228C76.3455 8.228 78.0795 9.758 78.2325 11.594C78.2495 11.679 78.1985 11.747 78.1305 11.798L73.0305 14.773C72.9455 14.824 72.9285 14.909 73.0135 14.977C73.4555 15.351 73.9995 15.436 74.4585 15.436C75.5125 15.436 76.0395 14.943 76.4815 14.212C76.5325 14.127 76.6005 14.093 76.6855 14.11L78.1305 14.365C78.2325 14.382 78.3005 14.433 78.2835 14.501C77.9775 15.742 76.6345 17.204 74.4585 17.204ZM72.1125 13.073L72.1465 13.175C72.1805 13.277 72.2655 13.294 72.3335 13.243L75.8185 11.101C75.8865 11.05 75.9205 10.999 75.8695 10.914C75.5635 10.404 74.9345 10.081 74.1525 10.166C73.0135 10.302 71.6535 11.679 72.1125 13.073ZM84.9692 17C84.8672 17 84.7992 16.932 84.7992 16.83V12.784C84.7992 10.778 83.8642 10.574 83.3202 10.574C81.9092 10.574 81.5692 11.679 81.5692 12.886V16.83C81.5692 16.932 81.5012 17 81.3992 17H79.4952C79.3932 17 79.3252 16.932 79.3252 16.83V8.67C79.3252 8.568 79.3932 8.5 79.4952 8.5H81.3992C81.5012 8.5 81.5692 8.568 81.5692 8.67V9.112C81.5692 9.231 81.6372 9.265 81.7392 9.18C82.2322 8.755 82.8442 8.5 83.5412 8.5C85.6322 8.5 87.0262 10.013 87.0262 12.376L87.0432 16.83C87.0432 16.932 86.9752 17 86.8732 17H84.9692Z" fill="black"/>
</g>
</svg>
