<svg width="30" height="30" viewBox="0 0 30 30" fill="none" xmlns="http://www.w3.org/2000/svg">
<g clip-path="url(#clip0_2_163)">
<path fill-rule="evenodd" clip-rule="evenodd" d="M25.7186 10.3495V19.6505C25.7186 22.9995 22.9995 25.7186 19.6505 25.7186H10.3495C7.00047 25.7186 4.28141 22.9995 4.28141 19.6505V10.3495C4.28141 7.00047 7.00047 4.28141 10.3495 4.28141H19.6505C22.9995 4.28141 25.7186 7.00047 25.7186 10.3495Z" fill="black" stroke="black" stroke-width="8" stroke-linejoin="round"/>
<path fill-rule="evenodd" clip-rule="evenodd" d="M25.7186 10.3495V19.6505C25.7186 22.9995 22.9995 25.7186 19.6505 25.7186H10.3495C7.00047 25.7186 4.28141 22.9995 4.28141 19.6505V10.3495C4.28141 7.00047 7.00047 4.28141 10.3495 4.28141H19.6505C22.9995 4.28141 25.7186 7.00047 25.7186 10.3495Z" fill="black" stroke="#FAF0E4" stroke-width="2.07457"/>
<path d="M11.2918 20.1501C8.76455 20.1501 6.87534 18.1233 6.87534 15.621C6.87534 13.1313 8.76455 11.1044 11.1042 11.1044C12.6181 11.1044 13.9443 11.9677 14.6824 13.2314C14.7325 13.3064 14.6949 13.369 14.6199 13.394L13.3062 13.7944C13.2436 13.8194 13.1936 13.7944 13.1435 13.7318C12.6806 13.0937 11.9299 12.6558 11.1292 12.6558C9.70291 12.6558 8.51433 14.0571 8.51433 15.6335C8.51433 17.2225 9.70291 18.6112 11.3419 18.6112C12.7932 18.6112 13.5064 17.7855 13.7691 16.9973C13.7941 16.9222 13.7441 16.8847 13.6815 16.8847H11.3169C11.2418 16.8847 11.1918 16.8346 11.1918 16.7596V15.4959C11.1918 15.4208 11.2418 15.3708 11.3169 15.3708H14.7074C15.4456 15.3708 15.2955 15.3958 15.2955 17.0974C15.2955 18.4111 13.5689 20.1501 11.2918 20.1501ZM16.4416 20C16.3666 20 16.3165 19.95 16.3165 19.8749V11.3672C16.3165 11.2921 16.3666 11.2421 16.4416 11.2421H19.044C21.1334 11.2421 21.759 12.5683 21.759 13.7193C21.759 14.1947 21.5963 14.6952 21.3336 15.1081C21.296 15.1706 21.3086 15.2082 21.3711 15.2457C22.2719 15.7461 22.5472 16.672 22.5472 17.4227C22.5472 20 20.2951 20 17.968 20H16.4416ZM17.968 18.4111C17.968 18.4736 18.0056 18.5111 18.0681 18.5111C18.6061 18.5111 19.2567 18.5487 19.6195 18.5237C20.5328 18.4611 20.8957 17.9481 20.8957 17.2975C20.8957 16.6094 20.3827 16.184 19.7446 16.1715H19.7071H18.0681C18.0056 16.1715 17.968 16.2091 17.968 16.2716V18.4111ZM17.968 14.7577C17.968 14.8203 18.0056 14.8578 18.0681 14.8578H19.1441C20.6204 14.8578 20.4828 12.7559 19.1441 12.7559H18.0681C18.0056 12.7559 17.968 12.7935 17.968 12.856V14.7577Z" fill="#FAF0E4"/>
</g>
<defs>
<clipPath id="clip0_2_163">
<rect width="30" height="30" fill="white"/>
</clipPath>
</defs>
</svg>
