<svg width="30" height="30" fill="none" xmlns="http://www.w3.org/2000/svg"><g clip-path="url(#a)"><path fill-rule="evenodd" clip-rule="evenodd" d="M25.719 10.35v9.3a6.071 6.071 0 0 1-6.069 6.069h-9.3A6.071 6.071 0 0 1 4.28 19.65v-9.3A6.071 6.071 0 0 1 10.35 4.28h9.3a6.071 6.071 0 0 1 6.069 6.069Z" fill="#000" stroke="#000" stroke-width="8" stroke-linejoin="round"/><path fill-rule="evenodd" clip-rule="evenodd" d="M25.719 10.35v9.3a6.071 6.071 0 0 1-6.069 6.069h-9.3A6.071 6.071 0 0 1 4.28 19.65v-9.3A6.071 6.071 0 0 1 10.35 4.28h9.3a6.071 6.071 0 0 1 6.069 6.069Z" fill="#000" stroke="#FAF0E4" stroke-width="2.075"/><path d="M11.292 20.15c-2.527 0-4.417-2.027-4.417-4.529 0-2.49 1.89-4.517 4.23-4.517 1.513 0 2.84.864 3.577 2.127.05.075.013.138-.062.163l-1.314.4c-.062.025-.112 0-.162-.062-.463-.638-1.214-1.076-2.015-1.076-1.426 0-2.615 1.401-2.615 2.977 0 1.59 1.189 2.978 2.828 2.978 1.451 0 2.164-.826 2.427-1.614.025-.075-.025-.112-.088-.112h-2.364c-.075 0-.125-.05-.125-.125v-1.264c0-.075.05-.125.125-.125h3.39c.739 0 .588.025.588 1.726 0 1.314-1.726 3.053-4.003 3.053Zm5.15-.15c-.075 0-.125-.05-.125-.125v-8.508c0-.075.05-.125.125-.125h2.602c2.09 0 2.715 1.326 2.715 2.477 0 .476-.163.976-.425 1.39-.038.062-.025.1.037.137.9.5 1.176 1.426 1.176 2.177C22.547 20 20.295 20 17.968 20h-1.526Zm1.526-1.589c0 .063.038.1.1.1.538 0 1.189.038 1.551.013.914-.063 1.277-.576 1.277-1.227 0-.688-.513-1.113-1.151-1.125h-1.677c-.062 0-.1.037-.1.1v2.14Zm0-3.653c0 .062.038.1.1.1h1.076c1.476 0 1.339-2.102 0-2.102h-1.076c-.062 0-.1.037-.1.1v1.902Z" fill="#FAF0E4"/></g><defs><clipPath id="a"><path fill="#fff" d="M0 0h30v30H0z"/></clipPath></defs></svg>