<svg width="67" height="29" fill="none" xmlns="http://www.w3.org/2000/svg"><g clip-path="url(#a)"><path clip-rule="evenodd" d="M64.967 9.85v9.3a6.071 6.071 0 0 1-6.068 6.069h-9.301a6.071 6.071 0 0 1-6.069-6.069v-9.3a6.071 6.071 0 0 1 6.069-6.069h9.3c3.35 0 6.069 2.72 6.069 6.069Z" stroke="#fff" stroke-width="2.075"/><path d="M50.54 19.65c-2.527 0-4.416-2.027-4.416-4.529 0-2.49 1.889-4.517 4.228-4.517 1.514 0 2.84.864 3.579 2.127.05.075.012.138-.063.163l-1.314.4c-.062.025-.112 0-.162-.062-.463-.638-1.214-1.076-2.015-1.076-1.426 0-2.614 1.401-2.614 2.977 0 1.59 1.188 2.978 2.827 2.978 1.451 0 2.164-.826 2.427-1.614.025-.075-.025-.112-.087-.112h-2.365c-.075 0-.125-.05-.125-.125v-1.264c0-.075.05-.125.125-.125h3.39c.739 0 .589.025.589 1.726 0 1.314-1.727 3.053-4.004 3.053Zm5.15-.15c-.075 0-.125-.05-.125-.125v-8.508c0-.075.05-.125.125-.125h2.602c2.09 0 2.715 1.326 2.715 2.477 0 .476-.163.976-.425 1.39-.038.062-.025.1.037.137.901.5 1.176 1.426 1.176 2.177 0 2.577-2.252 2.577-4.579 2.577H55.69Zm1.526-1.589c0 .063.038.1.1.1.538 0 1.189.038 1.552.013.913-.063 1.276-.576 1.276-1.227 0-.688-.513-1.113-1.151-1.126h-1.677c-.062 0-.1.038-.1.1v2.14Zm0-3.653c0 .062.038.1.1.1h1.076c1.477 0 1.339-2.102 0-2.102h-1.076c-.062 0-.1.037-.1.1v1.902ZM7.02 19.704c-3.178 0-5.745-2.584-5.745-6.154 0-3.553 2.567-6.137 5.746-6.137 3.162 0 5.729 2.584 5.729 6.137 0 3.57-2.567 6.154-5.73 6.154Zm-3.57-6.137c0 2.074 1.565 3.876 3.537 3.876 1.989 0 3.553-1.802 3.553-3.876S8.976 9.691 6.987 9.691c-1.99 0-3.536 1.819-3.536 3.876Zm15.337-2.686c2.244 0 4.063 2.091 4.063 4.488 0 2.397-1.82 4.352-4.063 4.352-.935 0-1.785-.306-2.431-.816-.102-.068-.17-.017-.17.085v3.74c0 .102-.068.17-.17.17h-1.904c-.102 0-.17-.068-.17-.17V11.187c0-.102.068-.17.17-.17h1.904c.102 0 .17.068.17.17v.493c0 .119.068.153.153.085a3.815 3.815 0 0 1 2.448-.884Zm-2.601 4.454c0 1.292 1.054 2.397 2.38 2.397 1.309 0 2.312-1.105 2.312-2.397 0-1.275-1.02-2.414-2.312-2.414-1.326 0-2.38 1.139-2.38 2.414Zm11.998 4.369c-2.465 0-4.488-2.023-4.488-4.539 0-2.499 1.853-4.437 4.3-4.437 2.075 0 3.809 1.53 3.962 3.366.017.085-.034.153-.102.204l-5.1 2.975c-.085.051-.102.136-.017.204.442.374.986.459 1.445.459 1.054 0 1.58-.493 2.023-1.224.05-.085.119-.119.204-.102l1.445.255c.102.017.17.068.153.136-.306 1.241-1.65 2.703-3.825 2.703Zm-2.346-4.131.034.102c.034.102.119.119.187.068l3.485-2.142c.068-.051.102-.102.05-.187-.305-.51-.934-.833-1.716-.748-1.14.136-2.5 1.513-2.04 2.907ZM38.694 19.5c-.102 0-.17-.068-.17-.17v-4.046c0-2.006-.935-2.21-1.479-2.21-1.41 0-1.75 1.105-1.75 2.312v3.944c0 .102-.069.17-.17.17H33.22c-.102 0-.17-.068-.17-.17v-8.16c0-.102.068-.17.17-.17h1.904c.102 0 .17.068.17.17v.442c0 .119.068.153.17.068a2.72 2.72 0 0 1 1.802-.68c2.091 0 3.485 1.513 3.485 3.876l.017 4.454c0 .102-.068.17-.17.17h-1.904Z" fill="#fff"/></g><defs><clipPath id="a"><path fill="#fff" d="M0 0h67v29H0z"/></clipPath></defs></svg>